<?xml version="1.0"?>
<svg width="512" height="512" xmlns="http://www.w3.org/2000/svg" xmlns:svg="http://www.w3.org/2000/svg">
 <defs>
  <linearGradient id="svg_3" spreadMethod="pad" x1="0.5" x2="0.5" y1="1" y2="0">
   <stop offset="0.119792" stop-color="#53a4ea" stop-opacity="0.99609"/>
   <stop offset="0.510417" stop-color="#53a4ea" stop-opacity="0.99609"/>
   <stop offset="0.518229" stop-color="#f79421" stop-opacity="0.99609"/>
   <stop offset="0.529948" stop-color="#f79421" stop-opacity="0.99609"/>
   <stop offset="0.983073" stop-color="#f79421" stop-opacity="0.99609"/>
  </linearGradient>
 </defs>
 <g class="layer">
  <title>Layer 1</title>
  <path d="m456.017,232a32.062,32.062 0 0 1 -30.844,-23.4a177.462,177.462 0 0 0 -62.1,-92.15a175.5,175.5 0 0 0 -214.143,0l0,0a175.288,175.288 0 0 0 -32.164,32.325l66.2,-19.471a32,32 0 1 1 18.058,61.4l-135.994,40a32,32 0 0 1 -40.979,-28.925l-8,-144a32,32 0 1 1 63.9,-3.548l2.045,36.805a239.375,239.375 0 0 1 320.195,-25.236a241.869,241.869 0 0 1 84.629,125.6a32,32 0 0 1 -30.8,40.6l-0.003,0zm-408.017,-192c-0.3,0 -0.593,0.009 -0.893,0.025a16.018,16.018 0 0 0 -15.082,16.863l8,144a16,16 0 0 0 20.487,14.462l136,-40a16,16 0 0 0 -9.029,-30.7l-87.453,25.722a8,8 0 0 1 -9.151,-11.734a192.149,192.149 0 0 1 48.268,-54.853l4.89,6.331l-4.89,-6.331a191.495,191.495 0 0 1 233.7,0a193.565,193.565 0 0 1 67.738,100.515a16,16 0 1 0 30.824,-8.6a225.775,225.775 0 0 0 -79,-117.243a223.495,223.495 0 0 0 -272.824,0a224.065,224.065 0 0 0 -38.227,37.717a8,8 0 0 1 -14.245,-4.541l-3.14,-56.523a16.025,16.025 0 0 0 -15.973,-15.11zm208,456a237.09,237.09 0 0 1 -146.193,-49.793a241.849,241.849 0 0 1 -84.627,-125.597a32,32 0 0 1 61.647,-17.193a177.444,177.444 0 0 0 62.1,92.143a175.228,175.228 0 0 0 246.308,-32.324l-66.2,19.471a32,32 0 1 1 -18.057,-61.393l135.993,-40a32,32 0 0 1 40.979,28.922l8,143.989a32.034,32.034 0 0 1 -30.175,33.722c-0.6,0.034 -1.2,0.051 -1.8,0.051a32,32 0 0 1 -31.928,-30.225l-2.045,-36.8a238.468,238.468 0 0 1 -174.002,75.027zm-200.008,-199.985a16,16 0 0 0 -15.4,20.3a225.749,225.749 0 0 0 79,117.235l0,0a223.511,223.511 0 0 0 272.825,0a224.083,224.083 0 0 0 38.227,-37.714a8,8 0 0 1 14.245,4.54l3.14,56.518a16,16 0 0 0 31.95,-1.776l-8,-143.988a16,16 0 0 0 -20.488,-14.461l-135.995,40a16,16 0 1 0 9.028,30.7l87.449,-25.719a8,8 0 0 1 9.152,11.734a192.125,192.125 0 0 1 -48.268,54.848a191.5,191.5 0 0 1 -233.7,0a193.551,193.551 0 0 1 -67.735,-100.5a16.034,16.034 0 0 0 -15.43,-11.717z" fill="url(#svg_3)" id="svg_1" transform="rotate(-180, 255.992, 256)"/>
 </g>
</svg>