<!-- This Source Code Form is subject to the terms of the Mozilla Public
   - License, v. 2.0. If a copy of the MPL was not distributed with this
   - file, You can obtain one at http://mozilla.org/MPL/2.0/. -->
<svg xmlns="http://www.w3.org/2000/svg" width="16" height="16" viewBox="0 0 16 16"><path fill="context-fill" d="M8.707.293a1 1 0 0 0-1.414 0l-5 5a1 1 0 0 0 1.414 1.414L7 3.414V12a1 1 0 1 0 2 0V3.414l3.293 3.293a1 1 0 0 0 1.414-1.414l-5-5zM3-1h10a1 1 0 1 0 0-2H3a1 1 0 1 0 0 2zm5.707 18.293a1 1 0 0 0-1.414 0l-5 5a1 1 0 0 0 1.414 1.414L7 20.414V29a1 1 0 1 0 2 0v-8.586l3.293 3.293a1 1 0 0 0 1.414-1.414l-5-5zM3 16h10a1 1 0 1 0 0-2H3a1 1 0 1 0 0 2z"/></svg>